<?xml version="1.0" encoding="utf-8" standalone="no"?>
<!DOCTYPE svg PUBLIC "-//W3C//DTD SVG 1.1//EN"
  "http://www.w3.org/Graphics/SVG/1.1/DTD/svg11.dtd">
<svg xmlns:xlink="http://www.w3.org/1999/xlink" width="1088.39952pt" height="406.953984pt" viewBox="0 0 1088.39952 406.953984" xmlns="http://www.w3.org/2000/svg" version="1.1">
 <metadata>
  <rdf:RDF xmlns:dc="http://purl.org/dc/elements/1.1/" xmlns:cc="http://creativecommons.org/ns#" xmlns:rdf="http://www.w3.org/1999/02/22-rdf-syntax-ns#">
   <cc:Work>
    <dc:type rdf:resource="http://purl.org/dc/dcmitype/StillImage"/>
    <dc:date>2026-10-04T04:46:22.427160</dc:date>
    <dc:format>image/svg+xml</dc:format>
    <dc:creator>
     <cc:Agent>
      <dc:title>Matplotlib v3.11.2, https://matplotlib.org/</dc:title>
     </cc:Agent>
    </dc:creator>
   </cc:Work>
  </rdf:RDF>
 </metadata>
 <defs>
  <style type="text/css">*{stroke-linejoin: round; stroke-linecap: butt}</style>
 </defs>
 <g id="figure_1">
  <g id="patch_1">
   <path d="M 0 406.953984 
L 1088.39952 406.953984 
L 1088.39952 0 
L 0 0 
z
" style="fill: #ffffff"/>
  </g>
  <g id="axes_1">
   <g id="patch_2">
    <path d="M 47.2875 324.848193 
L 538.79976 324.848193 
L 538.79976 21.199068 
L 47.2875 21.199068 
z
" style="fill: #ffffff"/>
   </g>
   <g id="patch_3">
    <path d="M 69.628966 324.848193 
L 96.281944 324.848193 
L 96.281944 57.231127 
L 69.628966 57.231127 
z
" clip-path="url(#p5db0fade26)" style="fill: #167d8d"/>
   </g>
   <g id="patch_4">
    <path d="M 148.020076 324.848193 
L 174.673054 324.848193 
L 174.673054 183.240873 
L 148.020076 183.240873 
z
" clip-path="url(#p5db0fade26)" style="fill: #167d8d"/>
   </g>
   <g id="patch_5">
    <path d="M 226.411186 324.848193 
L 253.064164 324.848193 
L 253.064164 273.652922 
L 226.411186 273.652922 
z
" clip-path="url(#p5db0fade26)" style="fill: #167d8d"/>
   </g>
   <g id="patch_6">
    <path d="M 304.802297 324.848193 
L 331.455274 324.848193 
L 331.455274 107.161248 
L 304.802297 107.161248 
z
" clip-path="url(#p5db0fade26)" style="fill: #167d8d"/>
   </g>
   <g id="patch_7">
    <path d="M 383.193407 324.848193 
L 409.846384 324.848193 
L 409.846384 162.341784 
L 383.193407 162.341784 
z
" clip-path="url(#p5db0fade26)" style="fill: #167d8d"/>
   </g>
   <g id="patch_8">
    <path d="M 461.584517 324.848193 
L 488.237494 324.848193 
L 488.237494 290.633318 
L 461.584517 290.633318 
z
" clip-path="url(#p5db0fade26)" style="fill: #167d8d"/>
   </g>
   <g id="patch_9">
    <path d="M 97.849766 324.848193 
L 124.502743 324.848193 
L 124.502743 63.004707 
L 97.849766 63.004707 
z
" clip-path="url(#p5db0fade26)" style="fill: #6557a5"/>
   </g>
   <g id="patch_10">
    <path d="M 176.240876 324.848193 
L 202.893853 324.848193 
L 202.893853 170.49872 
L 176.240876 170.49872 
z
" clip-path="url(#p5db0fade26)" style="fill: #6557a5"/>
   </g>
   <g id="patch_11">
    <path d="M 254.631986 324.848193 
L 281.284963 324.848193 
L 281.284963 286.097518 
L 254.631986 286.097518 
z
" clip-path="url(#p5db0fade26)" style="fill: #6557a5"/>
   </g>
   <g id="patch_12">
    <path d="M 333.023096 324.848193 
L 359.676074 324.848193 
L 359.676074 126.577766 
L 333.023096 126.577766 
z
" clip-path="url(#p5db0fade26)" style="fill: #6557a5"/>
   </g>
   <g id="patch_13">
    <path d="M 411.414206 324.848193 
L 438.067184 324.848193 
L 438.067184 264.735249 
L 411.414206 264.735249 
z
" clip-path="url(#p5db0fade26)" style="fill: #6557a5"/>
   </g>
   <g id="patch_14">
    <path d="M 489.805316 324.848193 
L 516.458294 324.848193 
L 516.458294 324.848193 
L 489.805316 324.848193 
z
" clip-path="url(#p5db0fade26)" style="fill: #6557a5"/>
   </g>
   <g id="matplotlib.axis_1">
    <g id="xtick_1">
     <g id="line2d_1">
      <defs>
       <path id="m4008035fc2" d="M 0 0 
L 0 3.5 
" style="stroke: #000000; stroke-width: 0.8"/>
      </defs>
      <g>
       <use xlink:href="#m4008035fc2" x="97.065855" y="324.848193" style="stroke: #000000; stroke-width: 0.8"/>
      </g>
     </g>
     <g id="text_1">
      <text style="font-size: 10px; font-family: 'DejaVu Sans'" transform="translate(69.201212 351.254074) rotate(-25)">Текст</text>
     </g>
    </g>
    <g id="xtick_2">
     <g id="line2d_2">
      <g>
       <use xlink:href="#m4008035fc2" x="175.456965" y="324.848193" style="stroke: #000000; stroke-width: 0.8"/>
      </g>
     </g>
     <g id="text_2">
      <text style="font-size: 10px; font-family: 'DejaVu Sans'" transform="translate(132.755781 358.32753) rotate(-25)">Таблицы</text>
     </g>
    </g>
    <g id="xtick_3">
     <g id="line2d_3">
      <g>
       <use xlink:href="#m4008035fc2" x="253.848075" y="324.848193" style="stroke: #000000; stroke-width: 0.8"/>
      </g>
     </g>
     <g id="text_3">
      <text style="font-size: 10px; font-family: 'DejaVu Sans'" transform="translate(194.014841 366.161273) rotate(-25)">Математика</text>
     </g>
    </g>
    <g id="xtick_4">
     <g id="line2d_4">
      <g>
       <use xlink:href="#m4008035fc2" x="332.239185" y="324.848193" style="stroke: #000000; stroke-width: 0.8"/>
      </g>
     </g>
     <g id="text_4">
      <text style="font-size: 10px; font-family: 'DejaVu Sans'" transform="translate(300.947566 352.852099) rotate(-25)">Химия</text>
     </g>
    </g>
    <g id="xtick_5">
     <g id="line2d_5">
      <g>
       <use xlink:href="#m4008035fc2" x="410.630295" y="324.848193" style="stroke: #000000; stroke-width: 0.8"/>
      </g>
     </g>
     <g id="text_5">
      <text style="font-size: 10px; font-family: 'DejaVu Sans'" transform="translate(344.564779 369.222497) rotate(-25)">Изображения</text>
     </g>
    </g>
    <g id="xtick_6">
     <g id="line2d_6">
      <g>
       <use xlink:href="#m4008035fc2" x="489.021405" y="324.848193" style="stroke: #000000; stroke-width: 0.8"/>
      </g>
     </g>
     <g id="text_6">
      <text style="font-size: 10px; font-family: 'DejaVu Sans'" transform="translate(432.582577 364.578435) rotate(-25)">Диаграммы</text>
     </g>
    </g>
   </g>
   <g id="matplotlib.axis_2">
    <g id="ytick_1">
     <g id="line2d_7">
      <defs>
       <path id="m5134a84aa4" d="M 0 0 
L -3.5 0 
" style="stroke: #000000; stroke-width: 0.8"/>
      </defs>
      <g>
       <use xlink:href="#m5134a84aa4" x="47.2875" y="324.848193" style="stroke: #000000; stroke-width: 0.8"/>
      </g>
     </g>
     <g id="text_7">
      <text style="font-size: 10px; font-family: 'DejaVu Sans'; text-anchor: end" x="40.2875" y="328.647021" transform="rotate(-0 40.2875 328.647021)">0</text>
     </g>
    </g>
    <g id="ytick_2">
     <g id="line2d_8">
      <g>
       <use xlink:href="#m5134a84aa4" x="47.2875" y="264.118368" style="stroke: #000000; stroke-width: 0.8"/>
      </g>
     </g>
     <g id="text_8">
      <text style="font-size: 10px; font-family: 'DejaVu Sans'; text-anchor: end" x="40.2875" y="267.917196" transform="rotate(-0 40.2875 267.917196)">20</text>
     </g>
    </g>
    <g id="ytick_3">
     <g id="line2d_9">
      <g>
       <use xlink:href="#m5134a84aa4" x="47.2875" y="203.388543" style="stroke: #000000; stroke-width: 0.8"/>
      </g>
     </g>
     <g id="text_9">
      <text style="font-size: 10px; font-family: 'DejaVu Sans'; text-anchor: end" x="40.2875" y="207.187371" transform="rotate(-0 40.2875 207.187371)">40</text>
     </g>
    </g>
    <g id="ytick_4">
     <g id="line2d_10">
      <g>
       <use xlink:href="#m5134a84aa4" x="47.2875" y="142.658718" style="stroke: #000000; stroke-width: 0.8"/>
      </g>
     </g>
     <g id="text_10">
      <text style="font-size: 10px; font-family: 'DejaVu Sans'; text-anchor: end" x="40.2875" y="146.457546" transform="rotate(-0 40.2875 146.457546)">60</text>
     </g>
    </g>
    <g id="ytick_5">
     <g id="line2d_11">
      <g>
       <use xlink:href="#m5134a84aa4" x="47.2875" y="81.928893" style="stroke: #000000; stroke-width: 0.8"/>
      </g>
     </g>
     <g id="text_11">
      <text style="font-size: 10px; font-family: 'DejaVu Sans'; text-anchor: end" x="40.2875" y="85.727721" transform="rotate(-0 40.2875 85.727721)">80</text>
     </g>
    </g>
    <g id="ytick_6">
     <g id="line2d_12">
      <g>
       <use xlink:href="#m5134a84aa4" x="47.2875" y="21.199068" style="stroke: #000000; stroke-width: 0.8"/>
      </g>
     </g>
     <g id="text_12">
      <text style="font-size: 10px; font-family: 'DejaVu Sans'; text-anchor: end" x="40.2875" y="24.997896" transform="rotate(-0 40.2875 24.997896)">100</text>
     </g>
    </g>
    <g id="text_13">
     <text style="font-size: 10px; font-family: 'DejaVu Sans'; text-anchor: middle" x="14.797656" y="173.02363" transform="rotate(-90 14.797656 173.02363)">Среднее Category Score инструментов</text>
    </g>
   </g>
   <g id="patch_15">
    <path d="M 47.2875 324.848193 
L 47.2875 21.199068 
" style="fill: none; stroke: #000000; stroke-width: 0.8; stroke-linejoin: miter; stroke-linecap: square"/>
   </g>
   <g id="patch_16">
    <path d="M 47.2875 324.848193 
L 538.79976 324.848193 
" style="fill: none; stroke: #000000; stroke-width: 0.8; stroke-linejoin: miter; stroke-linecap: square"/>
   </g>
   <g id="legend_1">
    <g id="patch_17">
     <path d="M 435.278666 55.553756 
L 532.49976 55.553756 
Q 534.29976 55.553756 534.29976 53.753756 
L 534.29976 27.499068 
Q 534.29976 25.699068 532.49976 25.699068 
L 435.278666 25.699068 
Q 433.478666 25.699068 433.478666 27.499068 
L 433.478666 53.753756 
Q 433.478666 55.553756 435.278666 55.553756 
z
" style="fill: #ffffff; opacity: 0.8; stroke: #cccccc; stroke-linejoin: miter"/>
    </g>
    <g id="patch_18">
     <path d="M 437.078666 36.137662 
L 455.078666 36.137662 
L 455.078666 29.837662 
L 437.078666 29.837662 
z
" style="fill: #167d8d"/>
    </g>
    <g id="text_14">
     <text style="font-size: 9px; font-family: 'DejaVu Sans'; text-anchor: start" x="462.278666" y="36.137662" transform="rotate(-0 462.278666 36.137662)">Локальные (5)</text>
    </g>
    <g id="patch_19">
     <path d="M 437.078666 49.791646 
L 455.078666 49.791646 
L 455.078666 43.491646 
L 437.078666 43.491646 
z
" style="fill: #6557a5"/>
    </g>
    <g id="text_15">
     <text style="font-size: 9px; font-family: 'DejaVu Sans'; text-anchor: start" x="462.278666" y="49.791646" transform="rotate(-0 462.278666 49.791646)">Облачные (5)</text>
    </g>
   </g>
  </g>
  <g id="axes_2">
   <g id="patch_20">
    <path d="M 589.68726 324.848193 
L 1081.19952 324.848193 
L 1081.19952 21.199068 
L 589.68726 21.199068 
z
" style="fill: #ffffff"/>
   </g>
   <g id="patch_21">
    <path d="M 612.028726 324.848193 
L 638.681704 324.848193 
L 638.681704 57.091703 
L 612.028726 57.091703 
z
" clip-path="url(#pca3cac4f23)" style="fill: #167d8d"/>
   </g>
   <g id="patch_22">
    <path d="M 690.419836 324.848193 
L 717.072814 324.848193 
L 717.072814 227.658363 
L 690.419836 227.658363 
z
" clip-path="url(#pca3cac4f23)" style="fill: #167d8d"/>
   </g>
   <g id="patch_23">
    <path d="M 768.810946 324.848193 
L 795.463924 324.848193 
L 795.463924 324.848193 
L 768.810946 324.848193 
z
" clip-path="url(#pca3cac4f23)" style="fill: #167d8d"/>
   </g>
   <g id="patch_24">
    <path d="M 847.202057 324.848193 
L 873.855034 324.848193 
L 873.855034 84.350078 
L 847.202057 84.350078 
z
" clip-path="url(#pca3cac4f23)" style="fill: #167d8d"/>
   </g>
   <g id="patch_25">
    <path d="M 925.593167 324.848193 
L 952.246144 324.848193 
L 952.246144 177.529114 
L 925.593167 177.529114 
z
" clip-path="url(#pca3cac4f23)" style="fill: #167d8d"/>
   </g>
   <g id="patch_26">
    <path d="M 1003.984277 324.848193 
L 1030.637254 324.848193 
L 1030.637254 324.848193 
L 1003.984277 324.848193 
z
" clip-path="url(#pca3cac4f23)" style="fill: #167d8d"/>
   </g>
   <g id="patch_27">
    <path d="M 640.249526 324.848193 
L 666.902503 324.848193 
L 666.902503 57.440263 
L 640.249526 57.440263 
z
" clip-path="url(#pca3cac4f23)" style="fill: #bd5a20"/>
   </g>
   <g id="patch_28">
    <path d="M 718.640636 324.848193 
L 745.293613 324.848193 
L 745.293613 116.614636 
L 718.640636 116.614636 
z
" clip-path="url(#pca3cac4f23)" style="fill: #bd5a20"/>
   </g>
   <g id="patch_29">
    <path d="M 797.031746 324.848193 
L 823.684723 324.848193 
L 823.684723 196.860015 
L 797.031746 196.860015 
z
" clip-path="url(#pca3cac4f23)" style="fill: #bd5a20"/>
   </g>
   <g id="patch_30">
    <path d="M 875.422856 324.848193 
L 902.075834 324.848193 
L 902.075834 141.378003 
L 875.422856 141.378003 
z
" clip-path="url(#pca3cac4f23)" style="fill: #bd5a20"/>
   </g>
   <g id="patch_31">
    <path d="M 953.813966 324.848193 
L 980.466944 324.848193 
L 980.466944 139.560789 
L 953.813966 139.560789 
z
" clip-path="url(#pca3cac4f23)" style="fill: #bd5a20"/>
   </g>
   <g id="patch_32">
    <path d="M 1032.205076 324.848193 
L 1058.858054 324.848193 
L 1058.858054 239.311007 
L 1032.205076 239.311007 
z
" clip-path="url(#pca3cac4f23)" style="fill: #bd5a20"/>
   </g>
   <g id="matplotlib.axis_3">
    <g id="xtick_7">
     <g id="line2d_13">
      <g>
       <use xlink:href="#m4008035fc2" x="639.465615" y="324.848193" style="stroke: #000000; stroke-width: 0.8"/>
      </g>
     </g>
     <g id="text_16">
      <text style="font-size: 10px; font-family: 'DejaVu Sans'" transform="translate(611.600972 351.254074) rotate(-25)">Текст</text>
     </g>
    </g>
    <g id="xtick_8">
     <g id="line2d_14">
      <g>
       <use xlink:href="#m4008035fc2" x="717.856725" y="324.848193" style="stroke: #000000; stroke-width: 0.8"/>
      </g>
     </g>
     <g id="text_17">
      <text style="font-size: 10px; font-family: 'DejaVu Sans'" transform="translate(675.155541 358.32753) rotate(-25)">Таблицы</text>
     </g>
    </g>
    <g id="xtick_9">
     <g id="line2d_15">
      <g>
       <use xlink:href="#m4008035fc2" x="796.247835" y="324.848193" style="stroke: #000000; stroke-width: 0.8"/>
      </g>
     </g>
     <g id="text_18">
      <text style="font-size: 10px; font-family: 'DejaVu Sans'" transform="translate(736.414601 366.161273) rotate(-25)">Математика</text>
     </g>
    </g>
    <g id="xtick_10">
     <g id="line2d_16">
      <g>
       <use xlink:href="#m4008035fc2" x="874.638945" y="324.848193" style="stroke: #000000; stroke-width: 0.8"/>
      </g>
     </g>
     <g id="text_19">
      <text style="font-size: 10px; font-family: 'DejaVu Sans'" transform="translate(843.347326 352.852099) rotate(-25)">Химия</text>
     </g>
    </g>
    <g id="xtick_11">
     <g id="line2d_17">
      <g>
       <use xlink:href="#m4008035fc2" x="953.030055" y="324.848193" style="stroke: #000000; stroke-width: 0.8"/>
      </g>
     </g>
     <g id="text_20">
      <text style="font-size: 10px; font-family: 'DejaVu Sans'" transform="translate(886.964539 369.222497) rotate(-25)">Изображения</text>
     </g>
    </g>
    <g id="xtick_12">
     <g id="line2d_18">
      <g>
       <use xlink:href="#m4008035fc2" x="1031.421165" y="324.848193" style="stroke: #000000; stroke-width: 0.8"/>
      </g>
     </g>
     <g id="text_21">
      <text style="font-size: 10px; font-family: 'DejaVu Sans'" transform="translate(974.982337 364.578435) rotate(-25)">Диаграммы</text>
     </g>
    </g>
   </g>
   <g id="matplotlib.axis_4">
    <g id="ytick_7">
     <g id="line2d_19">
      <g>
       <use xlink:href="#m5134a84aa4" x="589.68726" y="324.848193" style="stroke: #000000; stroke-width: 0.8"/>
      </g>
     </g>
     <g id="text_22">
      <text style="font-size: 10px; font-family: 'DejaVu Sans'; text-anchor: end" x="582.68726" y="328.647021" transform="rotate(-0 582.68726 328.647021)">0</text>
     </g>
    </g>
    <g id="ytick_8">
     <g id="line2d_20">
      <g>
       <use xlink:href="#m5134a84aa4" x="589.68726" y="264.118368" style="stroke: #000000; stroke-width: 0.8"/>
      </g>
     </g>
     <g id="text_23">
      <text style="font-size: 10px; font-family: 'DejaVu Sans'; text-anchor: end" x="582.68726" y="267.917196" transform="rotate(-0 582.68726 267.917196)">20</text>
     </g>
    </g>
    <g id="ytick_9">
     <g id="line2d_21">
      <g>
       <use xlink:href="#m5134a84aa4" x="589.68726" y="203.388543" style="stroke: #000000; stroke-width: 0.8"/>
      </g>
     </g>
     <g id="text_24">
      <text style="font-size: 10px; font-family: 'DejaVu Sans'; text-anchor: end" x="582.68726" y="207.187371" transform="rotate(-0 582.68726 207.187371)">40</text>
     </g>
    </g>
    <g id="ytick_10">
     <g id="line2d_22">
      <g>
       <use xlink:href="#m5134a84aa4" x="589.68726" y="142.658718" style="stroke: #000000; stroke-width: 0.8"/>
      </g>
     </g>
     <g id="text_25">
      <text style="font-size: 10px; font-family: 'DejaVu Sans'; text-anchor: end" x="582.68726" y="146.457546" transform="rotate(-0 582.68726 146.457546)">60</text>
     </g>
    </g>
    <g id="ytick_11">
     <g id="line2d_23">
      <g>
       <use xlink:href="#m5134a84aa4" x="589.68726" y="81.928893" style="stroke: #000000; stroke-width: 0.8"/>
      </g>
     </g>
     <g id="text_26">
      <text style="font-size: 10px; font-family: 'DejaVu Sans'; text-anchor: end" x="582.68726" y="85.727721" transform="rotate(-0 582.68726 85.727721)">80</text>
     </g>
    </g>
    <g id="ytick_12">
     <g id="line2d_24">
      <g>
       <use xlink:href="#m5134a84aa4" x="589.68726" y="21.199068" style="stroke: #000000; stroke-width: 0.8"/>
      </g>
     </g>
     <g id="text_27">
      <text style="font-size: 10px; font-family: 'DejaVu Sans'; text-anchor: end" x="582.68726" y="24.997896" transform="rotate(-0 582.68726 24.997896)">100</text>
     </g>
    </g>
    <g id="text_28">
     <text style="font-size: 10px; font-family: 'DejaVu Sans'; text-anchor: middle" x="557.197416" y="173.02363" transform="rotate(-90 557.197416 173.02363)">Среднее Category Score инструментов</text>
    </g>
   </g>
   <g id="patch_33">
    <path d="M 589.68726 324.848193 
L 589.68726 21.199068 
" style="fill: none; stroke: #000000; stroke-width: 0.8; stroke-linejoin: miter; stroke-linecap: square"/>
   </g>
   <g id="patch_34">
    <path d="M 589.68726 324.848193 
L 1081.19952 324.848193 
" style="fill: none; stroke: #000000; stroke-width: 0.8; stroke-linejoin: miter; stroke-linecap: square"/>
   </g>
   <g id="legend_2">
    <g id="patch_35">
     <path d="M 909.802958 55.400474 
L 1074.89952 55.400474 
Q 1076.69952 55.400474 1076.69952 53.600474 
L 1076.69952 27.499068 
Q 1076.69952 25.699068 1074.89952 25.699068 
L 909.802958 25.699068 
Q 908.002958 25.699068 908.002958 27.499068 
L 908.002958 53.600474 
Q 908.002958 55.400474 909.802958 55.400474 
z
" style="fill: #ffffff; opacity: 0.8; stroke: #cccccc; stroke-linejoin: miter"/>
    </g>
    <g id="patch_36">
     <path d="M 911.602958 36.137662 
L 929.602958 36.137662 
L 929.602958 29.837662 
L 911.602958 29.837662 
z
" style="fill: #167d8d"/>
    </g>
    <g id="text_29">
     <text style="font-size: 9px; font-family: 'DejaVu Sans'; text-anchor: start" x="936.802958" y="36.137662" transform="rotate(-0 936.802958 36.137662)">Классические локальные (3)</text>
    </g>
    <g id="patch_37">
     <path d="M 911.602958 49.638365 
L 929.602958 49.638365 
L 929.602958 43.338365 
L 911.602958 43.338365 
z
" style="fill: #bd5a20"/>
    </g>
    <g id="text_30">
     <text style="font-size: 9px; font-family: 'DejaVu Sans'; text-anchor: start" x="936.802958" y="49.638365" transform="rotate(-0 936.802958 49.638365)">ML локальные (2)</text>
    </g>
   </g>
  </g>
  <g id="text_31">
   <text style="font-weight: 700; font-size: 16px; font-family: 'DejaVu Sans'; text-anchor: middle" x="544.19976" y="19.88" transform="rotate(-0 544.19976 19.88)">Группы инструментов: два разных разбиения</text>
  </g>
  <g id="text_32">
   <text style="font-size: 9px; font-family: 'DejaVu Sans'; text-anchor: start; fill: #465363" x="20.39976" y="397.591875" transform="rotate(-0 20.39976 397.591875)">Cloud/local — место исполнения. Classic/ML сравниваются только среди local. Группы — фиксированные участники benchmark, не случайная выборка продуктов.</text>
  </g>
 </g>
 <defs>
  <clipPath id="p5db0fade26">
   <rect x="47.2875" y="21.199068" width="491.51226" height="303.649125"/>
  </clipPath>
  <clipPath id="pca3cac4f23">
   <rect x="589.68726" y="21.199068" width="491.51226" height="303.649125"/>
  </clipPath>
 </defs>
</svg>
